<svg xmlns="http://www.w3.org/2000/svg" viewBox="0 0 147.62 148.05"><defs><style>.cls-1{fill:#fff;}</style></defs><title>instagram</title><g id="Layer_2" data-name="Layer 2"><g id="background"><path class="cls-1" d="M72.66,148.05c-9.84-.21-19.67-.36-29.5-.66-7.17-.22-14.16-1.45-20.64-4.67-10.25-5.09-16.82-13.28-20-24.23C.57,112,.19,105.23.13,98.5Q-.08,76.23,0,53.94c0-6.72.14-13.47,1.4-20.12,2.28-12,8.35-21.51,19.12-27.65A40.85,40.85,0,0,1,38.48.88Q50.92.13,63.37,0c11.52-.1,23,0,34.56.18,6.88.1,13.77.36,20.44,2.37q21,6.3,26.95,27.38a57.76,57.76,0,0,1,2,15.3c.15,16.12.28,32.24.29,48.37A115,115,0,0,1,146.4,113c-2.12,12.48-8.18,22.37-19.35,28.74A43.77,43.77,0,0,1,109.11,147c-11.83,1.07-23.69.8-35.55.85h-.9ZM13.05,73.89h.18c0,3.59,0,7.19,0,10.78.07,8.41-.08,16.83,1,25.2,1.49,11.85,8.4,19.93,19.6,22.88,5.25,1.38,10.66,1.56,16,1.6,15.23.12,30.45.17,45.67,0a101.19,101.19,0,0,0,15.86-1.17c11-1.84,18.35-8.21,21.28-19.21,1.4-5.25,1.55-10.65,1.61-16q.24-18.85.19-37.71c0-7.59,0-15.19-1-22.73-1.64-12.11-9.24-20.32-21.19-22.81a78.38,78.38,0,0,0-16-1.26c-17.28,0-34.56.07-51.83.28a47.52,47.52,0,0,0-10.21,1.31c-9.87,2.32-16.4,8.42-19,18.27A54.13,54.13,0,0,0,13.63,45C13.26,54.59,13.22,64.24,13.05,73.89Z"/><path class="cls-1" d="M111.79,73.93A38,38,0,1,1,73.9,36,37.95,37.95,0,0,1,111.79,73.93Zm-13.31,0A24.64,24.64,0,1,0,73.54,98.56,24.66,24.66,0,0,0,98.48,73.89Z"/><path class="cls-1" d="M122.08,34.65a8.89,8.89,0,1,1-8.62-9A8.89,8.89,0,0,1,122.08,34.65Z"/></g></g></svg>