<svg xmlns="http://www.w3.org/2000/svg" viewBox="0 0 665.41 673.94"><defs><style>.cls-1{fill:#1e1e1e;}</style></defs><title>logo</title><g id="Layer_2" data-name="Layer 2"><g id="background"><path class="cls-1" d="M0,236.28V118l18.34-10.59Q100.43,60,182.53,12.56C189.72,8.41,196.87,4.19,204,0h.38c.36.24.71.52,1.09.73l44.05,24Q284,43.51,318.39,62.26A2.44,2.44,0,0,1,320,64.71c-.05,5.75.08,11.5.08,17.25q0,94.62-.12,189.22c0,.19,0,.38,0,.57,0,.54-.08,1.09-.14,1.82-.74-.39-1.29-.66-1.82-1Q262,240.69,206.08,208.8a3.19,3.19,0,0,1-1.89-3.23q.09-37.45,0-74.9V128l-95.6,52.54,1.84,1.11q104.39,60.29,208.79,120.52a3.17,3.17,0,0,1,1.82,3.26q-.13,29.67-.15,59.35-.06,50.06-.07,100.11,0,95-.07,190c0,5.75-.07,11.5-.13,17.25,0,.48-.1,1-.17,1.63-.95-.53-1.72-.94-2.48-1.38q-54.4-31.5-108.84-63a3.79,3.79,0,0,1-2.2-3.82Q207,481.78,207,358a2.91,2.91,0,0,0-1.54-3Q120.57,306,35.72,257,17.84,246.65,0,236.28Z"/><path class="cls-1" d="M345.13,673.94h-.38q0-9.2-.06-18.39-.07-77.94-.13-155.87c0-14.79-.11-29.58-.12-44.37q0-75.18-.09-150.37a2.48,2.48,0,0,1,1.41-2.53q101-58.25,201.93-116.54c3.2-1.84,6.39-3.7,9.89-5.73l-96.39-52.07v2.55q0,37.65,0,75.29a2.62,2.62,0,0,1-1.46,2.68q-56.21,32-112.37,64.08c-.53.3-1.08.55-1.87.95v-1.93q0-103.44,0-206.88a2.57,2.57,0,0,1,1.61-2.58Q403.21,31.68,459.3,1.05a15.65,15.65,0,0,0,1.51-1h.76c.54.39,1.05.84,1.62,1.18L523.46,36q70,40.44,140,80.87a3.11,3.11,0,0,1,1.84,3.08q-.09,57.26,0,114.51a2.92,2.92,0,0,1-1.67,3Q562.11,296,460.59,354.55a3.76,3.76,0,0,0-2.16,3.83q.07,123.81.05,247.61c0,1.25-.09,2.17-1.41,2.93q-49.6,28.65-99.15,57.39C353.63,668.8,349.39,671.39,345.13,673.94Z"/><path class="cls-1" d="M0,356.12c4-2.18,8-4.32,11.91-6.55q35.85-20.29,71.65-40.65a3.38,3.38,0,0,1,3.9,0q48.32,27.47,96.7,54.82c.54.31,1.07.64,2,1.17l-82.33,47.59c1.07.61,2,1.12,2.85,1.61q21.06,11.42,42.12,22.81a2.72,2.72,0,0,1,1.66,2.78q-.06,66.07,0,132.16v2.22c-.86-.44-1.45-.72-2-1-14.92-8.49-29.58-17.5-44.84-25.33-17.45-9-34.06-19.33-51.13-28.92s-34-19.55-51-29.33A10.89,10.89,0,0,0,0,488.86Z"/><path class="cls-1" d="M515,574v-2.24q0-65.9,0-131.78a3.07,3.07,0,0,1,1.9-3.17c14.4-7.73,28.75-15.56,43.11-23.37.48-.26,1-.56,1.6-1l-82.24-47.54c.7-.45,1.14-.78,1.62-1.05q48.76-27.62,97.53-55.25a2.39,2.39,0,0,1,2.73,0Q622.5,332,663.79,355.35a2.77,2.77,0,0,1,1.62,2.81q-.06,64.36,0,128.74a2.67,2.67,0,0,1-1.52,2.68c-32.82,18.88-65.36,38.27-98.54,56.5-16.56,9.1-32.84,18.68-49.49,27.62A4.94,4.94,0,0,1,515,574Z"/></g></g></svg>