<svg xmlns="http://www.w3.org/2000/svg" viewBox="0 0 258.97 521"><defs><style>.cls-1{fill:#fff;}</style></defs><title>symbol_sale</title><g id="Layer_2" data-name="Layer 2"><g id="background"><path class="cls-1" d="M155.26,235V86.55a169.71,169.71,0,0,1,71.34,20l15.23-45.07C224,51.39,194.93,41.83,155.26,40.69V0h-47V44.53c-61,13-99.38,56.62-99.38,112.19,0,56.28,37.6,91.55,99.38,116.13V435.93c-36.34-1-70.57-13.25-94.3-27.85L0,454.41c22.68,15.13,67.26,27.12,108.26,27.29V521h47V477.18C225,462.44,259,413.59,259,358.57,259,297.33,224,262.62,155.26,235ZM64.74,150.38c0-21.93,12.54-47.09,43.52-58.25v122C78.37,197.61,64.74,179.31,64.74,150.38Zm90.52,278.77V293c33.38,18.14,47.22,38.88,47.22,70C202.48,393.89,185.58,418,155.26,429.15Z"/></g></g></svg>