<svg xmlns="http://www.w3.org/2000/svg" viewBox="0 0 160.26 130.71"><defs><style>.cls-1{fill:#fff;}</style></defs><title>twitter</title><g id="Layer_2" data-name="Layer 2"><g id="background"><path class="cls-1" d="M48.61,102.32c-15.19-1.16-25.39-8.76-30.87-22.72,2.56.11,5,.3,7.46.31a24.35,24.35,0,0,0,7.29-1.16A33.2,33.2,0,0,1,13.56,67.12,32.45,32.45,0,0,1,6.19,46.06a32.43,32.43,0,0,0,14.76,4C12.19,43.69,7.18,35.21,6.51,24.36a32.1,32.1,0,0,1,4.32-18.2c17.88,21,40.5,32.55,68.15,34.46-.17-1-.31-1.74-.43-2.54a32.15,32.15,0,0,1,4.39-22.21C88.13,7.47,95.63,2.18,105.37.53c11.3-1.91,21.13,1.33,29.33,9.39a1.13,1.13,0,0,0,1.17.39,66.73,66.73,0,0,0,19.71-7.53l.48-.23a32.51,32.51,0,0,1-5.58,10.3,35.62,35.62,0,0,1-8.65,7.72,47.14,47.14,0,0,0,9.39-1.75c3.05-.91,6.05-2,9-3,0,.09-.16.28-.28.46A66.37,66.37,0,0,1,144.79,32a1.44,1.44,0,0,0-.66,1.32c0,3.15.05,6.31-.14,9.45a90.09,90.09,0,0,1-2.93,17.71,97.2,97.2,0,0,1-19.68,38,88.15,88.15,0,0,1-43.55,28.42,94.91,94.91,0,0,1-14.76,3,103,103,0,0,1-16.56.71A92.29,92.29,0,0,1,24.08,127,94.09,94.09,0,0,1,.59,116.45c-.14-.08-.28-.18-.59-.38C18.07,117.79,34.19,113.27,48.61,102.32Z"/></g></g></svg>